<svg width="730" height="729" viewBox="0 0 730 729" fill="none" xmlns="http://www.w3.org/2000/svg">
    <path d="M107.586 680.378C249.833 745.126 480.435 745.126 622.681 680.378C764.927 615.63 764.911 510.523 622.681 445.742C480.451 380.961 249.833 380.994 107.586 445.742C-34.6601 510.49 -34.6601 615.63 107.586 680.378Z" fill="#F5F5F5"/>
    <path d="M611.275 592.205C658.139 592.205 696.129 574.098 696.129 551.762C696.129 529.427 658.139 511.32 611.275 511.32C564.412 511.32 526.422 529.427 526.422 551.762C526.422 574.098 564.412 592.205 611.275 592.205Z" fill="#E0E0E0"/>
    <path d="M113.995 613.306C160.858 613.306 198.848 595.199 198.848 572.864C198.848 550.528 160.858 532.421 113.995 532.421C67.1315 532.421 29.1415 550.528 29.1415 572.864C29.1415 595.199 67.1315 613.306 113.995 613.306Z" fill="#E0E0E0"/>
    <path d="M63.5741 564.297H79.1302V537.667H63.5741V564.297Z" fill="#B16668"/>
    <path d="M127.177 544.142L142.733 544.673L143.513 516.5L127.177 515.968V544.142Z" fill="#B16668"/>
    <path d="M68.2227 348.836C68.2227 363.678 69.003 449.743 69.003 449.743C68.6378 454.009 64.5371 461.613 64.2051 477.003C63.7402 499.316 62.9101 550.999 62.9101 550.999C65.597 552.315 68.5397 553.027 71.5312 553.084C74.5228 553.142 77.4906 552.543 80.226 551.331C80.226 551.331 96.7119 477.833 99.501 455.786C101.925 436.494 106.142 384.115 106.142 384.115L118.029 449.295C116.203 457.4 115.527 465.721 116.02 474.015C116.751 484.225 126.214 535.443 126.214 535.443C128.925 536.973 131.938 537.89 135.042 538.128C138.146 538.366 141.265 537.92 144.177 536.82C144.177 536.82 145.107 456.467 145.273 447.169C145.489 436.478 140.823 344.519 140.823 344.519L68.2227 348.836Z" fill="#37474F"/>
    <path d="M79.1303 556.627V554.402C79.9604 554.402 80.475 555.215 80.7905 557.208C81.0113 558.689 81.3105 560.158 81.687 561.607C82.3835 564.331 83.2939 566.996 84.4097 569.576C86.6012 574.989 88.444 577.014 93.491 583.339C95.212 585.094 96.8254 586.951 98.3222 588.901C99.2519 590.561 99.584 595.226 97.9902 596.289C92.1131 600.207 83.1978 600.323 76.889 598.464C74.5382 597.81 72.4253 596.494 70.8031 594.671C69.1808 592.849 68.1178 590.598 67.7413 588.187C67.5088 586.743 67.5919 585.282 67.4258 583.837C66.8799 580.557 65.5469 577.458 63.541 574.806C62.3638 573.261 61.3615 571.591 60.5526 569.825C59.241 566.621 60.287 563.035 61.1171 559.864C61.8476 557.108 62.6278 554.087 63.5576 554.352V556.012C65.777 557.751 68.525 558.677 71.3439 558.636C73.635 558.818 79.1469 558.353 79.1303 556.627Z" fill="#263238"/>
    <path d="M142.899 539.875C143.696 539.875 144.36 541.054 146.219 542.98C148.881 545.683 151.972 547.927 155.367 549.621C161.194 552.543 172.517 557.025 177.63 559.333C180.834 560.777 180.685 564.646 177.381 566.837C174.077 569.028 166.075 570.622 156.496 568.497C151.266 567.335 144.459 562.504 140.159 562.77C135.859 563.035 127.791 562.969 124.62 560.777C121.449 558.586 122.711 553.904 123.607 549.886C124.587 545.487 125.815 538.647 127.26 538.946V540.456C129.136 543.295 138.781 544.441 142.899 542.366V539.875Z" fill="#263238"/>
    <path d="M106.059 384.115C114.072 381.597 121.438 377.359 127.641 371.697C127.641 371.697 123.458 379.516 111.039 386.804L117.049 444.779L106.059 384.115Z" fill="#263238"/>
    <path d="M130.779 313.307C120.619 279.472 122.628 250.817 120.718 242.051L146.767 278.426C147.869 290.415 149.649 302.332 152.096 314.121C155.101 327.054 159.202 343.174 164.116 353.202C165.008 354.969 166.513 356.35 168.35 357.087C173.33 359.096 175.555 361.636 179.49 364.541C182.578 366.832 184.918 367.131 184.736 368.061C184.395 369.107 183.673 369.986 182.713 370.524C181.753 371.063 180.626 371.22 179.556 370.966C177.18 370.468 174.873 369.688 172.683 368.642C174.892 372.39 177.695 375.754 180.984 378.603C188.521 385.161 189.6 389.793 177.082 392.067C169.23 393.512 162.14 389.743 153.192 373.44C149.802 367.507 146.845 361.337 144.343 354.978C138.366 338.376 133.851 323.551 130.779 313.307Z" fill="#B16668"/>
    <path d="M118.61 233.634C126.695 235.062 134.697 236.954 139.661 244.724C144.625 252.494 151.797 289.168 151.797 289.168C151.797 289.168 141.371 296.489 129.418 296.174L118.61 233.634Z" fill="white"/>
    <path opacity="0.1" d="M118.61 233.634C126.695 235.062 134.697 236.954 139.661 244.724C144.625 252.494 151.797 289.168 151.797 289.168C151.797 289.168 141.371 296.489 129.418 296.174L118.61 233.634Z" fill="black"/>
    <path d="M62.8935 247.264C57.4646 251.133 28.8261 315.814 27.7304 320.313C26.2528 326.439 26.9335 333.296 29.9384 335.521C32.9434 337.745 39.5676 334.558 43.0374 331.171C49.6783 324.53 72.9211 276.152 72.9211 276.152L62.8935 247.264Z" fill="#9A4A4D"/>
    <path d="M91.366 233.783C78.0843 236.971 61.4823 242.3 55.5554 254.453C49.6284 266.606 40.6135 286.345 40.6135 286.345C46.7566 292.339 54.2496 296.769 62.4618 299.262L69.1026 287.64L68.1231 349.068C78.8314 356.871 118.162 361.121 140.707 344.652C140.707 344.652 137.951 271.005 137.951 259.533C137.951 248.061 131.576 234.298 113.995 233.269L91.366 233.783Z" fill="white"/>
    <path opacity="0.1" d="M69.2023 287.491C69.2023 287.491 75.8431 276.019 77.2543 273.246L68.9532 301.47L69.2023 287.491Z" fill="black"/>
    <path d="M116.535 203.966C128.335 203.966 137.901 194.4 137.901 182.599C137.901 170.799 128.335 161.232 116.535 161.232C104.734 161.232 95.1678 170.799 95.1678 182.599C95.1678 194.4 104.734 203.966 116.535 203.966Z" fill="#263238"/>
    <path d="M79.5786 197.79C79.5786 197.79 83.0484 214.06 84.443 216.733C85.3643 218.383 86.8867 219.614 88.6931 220.17L88.4606 208.731L79.5786 197.79Z" fill="#263238"/>
    <path d="M83.9282 174.481C82.7163 174.343 81.4888 174.481 80.3384 174.887C79.188 175.292 78.1447 175.954 77.2874 176.822C74.4485 179.727 76.0423 188.858 79.5785 197.79L86.1031 198.537L83.9282 174.481Z" fill="#263238"/>
    <path d="M88.0622 198.554C86.7506 199.334 84.8912 196.811 83.2808 195.134C81.6704 193.457 76.391 191.133 73.7678 196.661C71.1447 202.19 76.0921 209.76 80.2426 211.072C87.3815 213.313 88.5436 208.731 88.5436 208.731L89.0583 235.294C97.9404 246.683 122.594 245.72 112.301 233.833V225.98C115.483 226.496 118.712 226.663 121.93 226.479C127.193 225.665 130.497 221.498 132.091 215.837C134.648 206.706 135.627 199.235 133.452 181.354C131.078 161.664 108.167 161.432 95.7987 169.251C83.4302 177.071 88.0622 198.554 88.0622 198.554Z" fill="#B16668"/>
    <path d="M88.0622 200.745C87.3981 200.745 84.9078 196.611 83.2808 195.134C81.0229 193.075 83.9283 174.481 83.9283 174.481C83.164 172.855 82.9042 171.037 83.1824 169.261C83.4605 167.486 84.2638 165.834 85.4889 164.52C88.5768 161.116 92.8934 156.949 106.906 158.609C116.867 159.805 127.791 162.909 136.59 158.609C137.408 161.478 137.348 164.526 136.419 167.36C135.49 170.195 133.734 172.686 131.377 174.514C131.377 174.514 128.189 176.556 119.755 177.585C112.011 178.166 104.229 178.016 96.5126 177.137C94.0887 176.805 93.5741 179.163 92.2625 185.588C91.2332 191.149 90.2703 200.712 88.0622 200.745Z" fill="#263238"/>
    <path d="M83.9449 175.925L76.0423 171.675C76.2961 171.145 76.6544 170.672 77.0957 170.283C77.5369 169.895 78.052 169.6 78.6101 169.415C79.1682 169.231 79.7578 169.161 80.3436 169.21C80.9294 169.258 81.4992 169.425 82.019 169.7C83.0797 170.29 83.8719 171.266 84.2307 172.426C84.5894 173.586 84.487 174.839 83.9449 175.925Z" fill="#263238"/>
    <path d="M112.218 225.964C112.218 225.964 100.497 223.606 96.3964 221.432C93.9837 220.173 92.0054 218.218 90.7185 215.82C91.338 218.226 92.4331 220.484 93.9393 222.461C96.9443 226.296 112.202 229.102 112.202 229.102L112.218 225.964Z" fill="#9A4A4D"/>
    <path d="M109.379 195.599C109.388 196.234 109.145 196.848 108.704 197.305C108.262 197.762 107.657 198.026 107.022 198.039C106.393 198.013 105.8 197.744 105.366 197.289C104.932 196.834 104.693 196.228 104.697 195.599C104.688 194.963 104.931 194.35 105.373 193.892C105.815 193.435 106.419 193.171 107.055 193.158C107.683 193.184 108.277 193.453 108.711 193.908C109.144 194.364 109.384 194.97 109.379 195.599V195.599Z" fill="#263238"/>
    <path d="M106.905 186.733L101.925 189.522C101.563 188.832 101.482 188.029 101.698 187.28C101.915 186.531 102.413 185.895 103.087 185.505C103.417 185.328 103.779 185.22 104.152 185.186C104.525 185.153 104.901 185.194 105.257 185.309C105.613 185.424 105.943 185.609 106.226 185.853C106.509 186.098 106.74 186.397 106.905 186.733Z" fill="#263238"/>
    <path d="M111.156 211.852L116.535 213.861C116.419 214.223 116.232 214.557 115.983 214.844C115.735 215.132 115.43 215.365 115.089 215.531C114.747 215.697 114.376 215.792 113.996 215.811C113.617 215.829 113.238 215.77 112.882 215.637C112.159 215.354 111.574 214.801 111.252 214.095C110.93 213.388 110.895 212.584 111.156 211.852V211.852Z" fill="#9A4A4D"/>
    <path d="M130.364 188.692L125.782 185.173C125.995 184.86 126.269 184.594 126.589 184.393C126.909 184.191 127.267 184.057 127.641 183.999C128.014 183.941 128.396 183.961 128.762 184.058C129.127 184.154 129.469 184.324 129.766 184.558C130.376 185.04 130.777 185.737 130.888 186.506C131 187.275 130.812 188.057 130.364 188.692Z" fill="#263238"/>
    <path d="M128.953 194.951C128.933 195.413 128.779 195.858 128.508 196.233C128.238 196.607 127.863 196.894 127.431 197.057C126.999 197.22 126.528 197.253 126.078 197.151C125.627 197.049 125.216 196.817 124.896 196.484C124.577 196.15 124.362 195.731 124.279 195.276C124.195 194.822 124.248 194.353 124.429 193.928C124.61 193.503 124.911 193.14 125.297 192.886C125.682 192.631 126.134 192.495 126.596 192.494C126.912 192.501 127.223 192.569 127.513 192.696C127.803 192.823 128.064 193.006 128.283 193.234C128.502 193.462 128.674 193.732 128.789 194.026C128.904 194.321 128.96 194.635 128.953 194.951V194.951Z" fill="#263238"/>
    <path d="M116.983 192.71L117.747 206.855L125.135 204.331L116.983 192.71Z" fill="#9A4A4D"/>
    <path d="M54.4098 359.743C54.1897 359.743 53.9785 359.656 53.8228 359.5C53.6672 359.344 53.5797 359.133 53.5797 358.913V97.7961C53.5797 97.5759 53.6672 97.3648 53.8228 97.2091C53.9785 97.0535 54.1897 96.966 54.4098 96.966C54.63 96.966 54.8411 97.0535 54.9968 97.2091C55.1525 97.3648 55.2399 97.5759 55.2399 97.7961V358.913C55.2399 359.133 55.1525 359.344 54.9968 359.5C54.8411 359.656 54.63 359.743 54.4098 359.743Z" fill="#37474F"/>
    <path d="M60.7186 120.524C60.7186 117.851 55.1901 110.563 54.0778 110.563C52.9655 110.563 48.0347 117.719 48.0347 120.524C48.0851 121.08 48.2822 121.613 48.606 122.068C48.9298 122.523 49.3686 122.884 49.8775 123.114C51.258 123.818 52.7855 124.185 54.3351 124.185C55.8848 124.185 57.4123 123.818 58.7928 123.114C59.3048 122.887 59.747 122.527 60.0738 122.071C60.4006 121.616 60.6003 121.082 60.6522 120.524H60.7186Z" fill="#DD1100"/>
    <path opacity="0.1" d="M60.7186 120.524C60.7186 117.851 55.1901 110.563 54.0778 110.563C52.9655 110.563 48.0347 117.719 48.0347 120.524C48.0851 121.08 48.2822 121.613 48.606 122.068C48.9298 122.523 49.3686 122.884 49.8775 123.114C51.258 123.818 52.7855 124.185 54.3351 124.185C55.8848 124.185 57.4123 123.818 58.7928 123.114C59.3048 122.887 59.747 122.527 60.0738 122.071C60.4006 121.616 60.6003 121.082 60.6522 120.524H60.7186Z" fill="black"/>
    <path d="M91.1169 62.5832C91.1169 83.0037 75.0793 108.803 54.1275 113.684C33.0097 107.791 17.1548 83.0037 17.1548 62.5832C17.1548 42.1627 30.3036 23.0703 54.1441 23.0703C77.9847 23.0703 91.1169 42.146 91.1169 62.5832Z" fill="#DD1100"/>
    <path opacity="0.05" d="M18.5162 51.3768C17.6013 55.0417 17.144 58.8058 17.1549 62.5831C17.1549 83.0037 33.0596 107.791 54.1442 113.684C71.5597 109.617 85.5719 91.1055 89.8054 73.2417C89.8054 73.2417 84.2935 92.8487 60.0379 94.4259C35.7823 96.003 16.2085 68.2776 18.5162 51.3768Z" fill="black"/>
    <path d="M30.7686 335.919C26.3524 334.657 21.82 321.442 22.1521 312.975C22.4841 304.508 33.8731 267.884 35.4337 260.845C37.2101 253.075 37.0939 247.165 38.6711 243.13C40.9954 237.17 48.6323 233.9 48.6323 233.9C48.6323 233.9 58.5936 229.135 62.1796 228.421C65.7657 227.707 67.1602 230.081 66.7618 231.957C66.3633 233.833 65.1016 238.598 64.7695 241.188C64.5329 244.503 63.5633 247.723 61.9306 250.618C60.0545 253.623 52.401 260.812 52.1022 264.813C51.8033 268.814 49.5953 290.529 48.3335 306.318C47.2876 319.234 45.9926 324.58 43.1869 328C40.3811 331.42 34.2052 336.882 30.7686 335.919Z" fill="#B16668"/>
    <path d="M654.042 522.725H638.271V549.72H654.042V522.725Z" fill="#FFA8A7"/>
    <path d="M599.372 521.298L583.617 521.829L582.836 493.273L599.372 492.725V521.298Z" fill="#FFA8A7"/>
    <path d="M648.946 321.857C648.946 336.915 651.303 427.347 651.303 427.347C651.668 431.68 655.835 439.383 656.168 454.989C656.632 477.618 654.673 536.223 654.673 536.223C651.951 537.558 648.969 538.282 645.938 538.342C642.906 538.402 639.898 537.798 637.125 536.571C637.125 536.571 623.212 455.869 620.39 433.473C617.933 413.932 613.749 360.822 613.749 360.822L605.232 424.707C607.057 432.925 607.717 441.358 607.191 449.759C606.444 460.119 600.385 512.515 600.385 512.515C597.628 514.07 594.563 514.999 591.407 515.237C588.251 515.475 585.081 515.016 582.122 513.893C582.122 513.893 574.153 434.203 573.971 424.707C573.772 413.866 579.217 303.246 579.217 303.246L648.946 321.857Z" fill="#37474F"/>
    <path d="M587.153 290.762C597.313 256.91 595.304 228.255 597.214 219.489L571.165 255.864C570.062 267.859 568.283 279.781 565.836 291.575C562.831 304.508 558.73 320.629 553.816 330.656C552.924 332.419 551.418 333.794 549.582 334.525C544.602 336.533 542.377 339.074 538.442 341.996C535.354 344.27 533.014 344.569 533.196 345.499C533.55 346.532 534.278 347.396 535.236 347.922C536.194 348.447 537.314 348.595 538.376 348.338C540.751 347.837 543.058 347.057 545.249 346.013C543.037 349.759 540.234 353.123 536.948 355.974C529.411 362.516 528.332 367.148 540.85 369.422C548.702 370.866 555.792 367.098 564.74 350.795C568.146 344.851 571.12 338.67 573.639 332.3C579.566 315.731 584.081 300.989 587.153 290.762Z" fill="#FFA8A7"/>
    <path d="M599.306 211.072C591.22 212.5 583.235 214.392 578.271 222.162C573.307 229.932 566.135 266.606 566.135 266.606C566.135 266.606 576.561 273.927 588.514 273.612L599.306 211.072Z" fill="#E0E0E0"/>
    <path d="M655.022 224.719C660.451 228.57 689.089 293.252 690.185 297.768C691.646 303.894 690.982 310.767 687.977 312.975C684.972 315.183 678.348 312.012 674.878 308.625C668.237 301.985 644.911 253.623 644.911 253.623L655.022 224.719Z" fill="#F28F8F"/>
    <path d="M626.832 211.055C640.03 214.243 656.715 219.572 662.626 231.725C668.536 243.877 677.568 263.601 677.568 263.601C671.42 269.597 663.921 274.027 655.703 276.517L649.062 264.896L650.041 326.24C639.333 334.043 600.003 338.277 577.457 321.824C577.457 321.824 580.23 248.161 580.23 236.705C580.23 225.25 586.588 211.47 604.187 210.441L626.832 211.055Z" fill="#F0F0F0"/>
    <path d="M648.946 264.846C648.946 264.846 642.305 253.357 640.894 250.601L649.195 278.825L648.946 264.846Z" fill="#E0E0E0"/>
    <path d="M638.27 541.934V539.676C636.76 540.34 633.29 553.705 626.998 559.416C622.017 563.948 615.243 569.194 613.517 574.241C611.79 579.288 622.963 582.41 627.612 581.58C633.008 580.633 642.371 576.831 644.712 573.279C647.053 569.726 648.165 564.562 650.075 561.989C651.984 559.416 656.383 556.51 657.413 553.522C657.977 551.862 657.313 548.292 656.516 545.221C655.719 542.15 654.989 539.361 654.042 539.626V541.286C651.794 543.046 649.011 543.984 646.156 543.943C643.849 544.242 638.254 543.694 638.27 541.934Z" fill="#263238"/>
    <path d="M583.451 516.964C582.637 516.964 581.973 518.16 580.13 520.102C577.438 522.821 574.306 525.067 570.866 526.743C564.956 529.698 553.484 534.247 548.287 536.588C544.967 538.049 545.199 541.967 548.553 544.192C551.907 546.416 559.992 548.043 569.721 545.852C575.017 544.657 581.923 539.776 586.323 540.025C590.722 540.274 598.857 540.241 602.078 538.016C605.299 535.791 604.021 531.043 603.107 526.976C602.111 522.526 600.866 515.586 599.389 515.902V517.429C597.496 520.301 587.767 521.464 583.55 519.355L583.451 516.964Z" fill="#263238"/>
    <path opacity="0.1" d="M613.782 360.822C605.631 358.279 598.134 353.984 591.818 348.238C591.818 348.238 596.068 356.174 608.652 363.545L605.963 419.178L613.782 360.822Z" fill="black"/>
    <path d="M631.779 152.433C632.963 152.293 634.163 152.424 635.288 152.819C636.413 153.213 637.433 153.859 638.27 154.708C641.06 157.563 640.479 162.843 638.27 174.962L629.654 175.959L631.779 152.433Z" fill="#263238"/>
    <path d="M581.558 148.881C579.703 148.889 577.867 148.516 576.162 147.785C573.523 146.257 572.842 149.262 574.27 151.869C575.226 153.734 576.643 155.322 578.387 156.485C580.13 157.647 582.142 158.344 584.231 158.51C584.231 158.145 586.705 151.869 586.705 151.869L581.558 148.881Z" fill="#263238"/>
    <path d="M627.745 175.909C629.023 176.672 630.849 174.249 632.427 172.588C634.004 170.928 639.15 168.67 641.707 174.082C644.264 179.495 638.387 186.932 634.9 189.356C630.75 192.245 627.745 189.987 627.745 189.987L626.832 211.072C626.832 211.072 622.249 222.262 609.864 223.938C597.479 225.615 600.036 215.422 604.103 210.408V202.738C604.103 202.738 597.712 203.999 594.69 203.219C592.5 202.528 590.515 201.306 588.912 199.66C587.31 198.014 586.141 195.997 585.509 193.789C582.105 182.54 581.394 170.649 583.434 159.074C586.588 139.932 608.171 139.617 620.257 147.22C632.344 154.824 627.745 175.909 627.745 175.909Z" fill="#FFA8A7"/>
    <path d="M627.745 178.067C628.376 178.067 630.833 174.016 632.427 172.572C634.635 170.563 631.779 152.384 631.779 152.384C631.779 152.384 634.02 145.494 629.654 140.912C625.288 136.329 616.837 137.11 610.661 136.894C603.075 136.943 595.56 135.435 588.581 132.461C579.815 128.643 579.151 128.194 578.055 132.046C576.959 135.898 576.561 144.73 581.807 150.64L586.157 152.301C586.157 152.301 588.514 154.376 596.699 155.372C604.25 155.944 611.837 155.799 619.361 154.94C621.735 154.625 622.25 156.916 623.528 163.241C624.64 168.67 625.57 178.017 627.745 178.067Z" fill="#263238"/>
    <path d="M631.762 153.795L639.499 149.644C639.252 149.125 638.903 148.661 638.472 148.279C638.041 147.898 637.537 147.608 636.991 147.427C636.445 147.246 635.868 147.176 635.295 147.224C634.722 147.271 634.164 147.434 633.655 147.702C632.616 148.278 631.839 149.234 631.486 150.369C631.134 151.504 631.233 152.731 631.762 153.795V153.795Z" fill="#263238"/>
    <path d="M604.12 202.721C604.12 202.721 615.592 200.413 619.593 198.288C621.955 197.06 623.889 195.144 625.138 192.793C624.534 195.142 623.461 197.344 621.984 199.268C619.062 203.02 604.12 205.776 604.12 205.776V202.721Z" fill="#F28F8F"/>
    <path d="M606.859 172.655C606.876 173.107 607.025 173.545 607.288 173.913C607.551 174.282 607.917 174.565 608.34 174.727C608.763 174.889 609.224 174.923 609.666 174.824C610.108 174.726 610.511 174.5 610.826 174.174C611.14 173.849 611.352 173.438 611.435 172.992C611.517 172.547 611.467 172.087 611.29 171.67C611.113 171.254 610.818 170.898 610.44 170.648C610.063 170.398 609.62 170.264 609.167 170.264C608.858 170.268 608.553 170.334 608.27 170.456C607.986 170.579 607.73 170.757 607.516 170.979C607.301 171.201 607.133 171.464 607.02 171.751C606.907 172.039 606.853 172.346 606.859 172.655V172.655Z" fill="#263238"/>
    <path d="M609.715 163.142L614.696 165.865C615.049 165.19 615.128 164.405 614.914 163.674C614.701 162.943 614.211 162.324 613.55 161.946C613.223 161.759 612.861 161.641 612.486 161.599C612.111 161.558 611.732 161.595 611.372 161.707C611.012 161.819 610.679 162.005 610.394 162.252C610.109 162.498 609.877 162.802 609.715 163.142V163.142Z" fill="#263238"/>
    <path d="M607.042 188.626L601.796 190.618C601.91 190.971 602.093 191.298 602.336 191.578C602.579 191.858 602.876 192.087 603.21 192.249C603.543 192.412 603.906 192.506 604.276 192.525C604.646 192.544 605.017 192.489 605.365 192.361C606.078 192.083 606.654 191.535 606.967 190.836C607.281 190.138 607.308 189.344 607.042 188.626Z" fill="#F28F8F"/>
    <path d="M585.31 166.429L589.792 162.976C589.582 162.667 589.31 162.405 588.993 162.207C588.676 162.009 588.322 161.878 587.952 161.824C587.583 161.769 587.206 161.792 586.845 161.89C586.485 161.988 586.149 162.16 585.858 162.395C585.27 162.871 584.886 163.554 584.785 164.303C584.683 165.053 584.871 165.813 585.31 166.429V166.429Z" fill="#263238"/>
    <path d="M587.883 172.007C587.9 172.46 588.049 172.899 588.313 173.268C588.577 173.636 588.944 173.919 589.368 174.081C589.792 174.242 590.254 174.275 590.696 174.176C591.138 174.076 591.542 173.848 591.856 173.521C592.169 173.193 592.38 172.781 592.46 172.335C592.541 171.888 592.488 171.428 592.309 171.012C592.13 170.595 591.831 170.24 591.452 169.992C591.072 169.744 590.628 169.614 590.174 169.617C589.555 169.634 588.967 169.895 588.538 170.342C588.11 170.789 587.874 171.388 587.883 172.007V172.007Z" fill="#263238"/>
    <path d="M600.451 170.214L599.687 184.027L592.482 181.57L600.451 170.214Z" fill="#F28F8F"/>
    <path d="M663.522 337.181C663.302 337.181 663.091 337.094 662.935 336.938C662.78 336.782 662.692 336.571 662.692 336.351V75.234C662.692 75.0138 662.78 74.8027 662.935 74.647C663.091 74.4913 663.302 74.4039 663.522 74.4039C663.742 74.4039 663.953 74.4913 664.109 74.647C664.265 74.8027 664.352 75.0138 664.352 75.234V336.351C664.352 336.571 664.265 336.782 664.109 336.938C663.953 337.094 663.742 337.181 663.522 337.181Z" fill="#37474F"/>
    <path d="M657.247 97.9621C657.247 95.3058 662.775 88.0009 663.887 88.0009C665 88.0009 669.931 95.1564 669.931 97.9621C669.882 98.5188 669.685 99.0524 669.361 99.5077C669.037 99.963 668.598 100.324 668.088 100.552C666.707 101.256 665.18 101.623 663.63 101.623C662.08 101.623 660.553 101.256 659.172 100.552C658.646 100.337 658.188 99.9818 657.849 99.5253C657.509 99.0689 657.301 98.5283 657.247 97.9621V97.9621Z" fill="#D10000"/>
    <path opacity="0.1" d="M657.247 97.9621C657.247 95.3058 662.775 88.0009 663.887 88.0009C665 88.0009 669.931 95.1564 669.931 97.9621C669.882 98.5188 669.685 99.0524 669.361 99.5077C669.037 99.963 668.598 100.324 668.088 100.552C666.707 101.256 665.18 101.623 663.63 101.623C662.08 101.623 660.553 101.256 659.172 100.552C658.646 100.337 658.188 99.9818 657.849 99.5253C657.509 99.0689 657.301 98.5283 657.247 97.9621V97.9621Z" fill="black"/>
    <path d="M626.798 40.021C626.798 60.4415 642.819 86.2411 663.788 91.1221C684.872 85.2284 700.777 60.4415 700.777 40.021C700.777 19.6005 687.628 0.508179 663.788 0.508179C639.947 0.508179 626.798 19.6171 626.798 40.021Z" fill="#D10000"/>
    <path opacity="0.05" d="M699.183 50.6961C699.183 50.6961 693.771 70.2865 669.416 71.8637C646.04 73.3745 627.031 47.7078 627.745 30.7073C627.111 33.7713 626.794 36.8922 626.798 40.021C626.798 60.4415 642.819 86.2411 663.788 91.1221C681.27 86.2411 695.166 68.3773 699.432 50.7791L699.183 50.6961Z" fill="black"/>
    <path d="M687.13 313.357C691.546 312.095 696.079 298.897 695.747 290.413C695.415 281.929 684.026 245.339 682.465 238.283C680.689 230.513 680.805 224.603 679.228 220.568C676.903 214.625 669.267 211.354 669.267 211.354C669.267 211.354 659.305 206.573 655.719 205.859C652.133 205.145 650.739 207.519 651.137 209.395C651.536 211.271 652.797 216.036 653.129 218.626C653.364 221.941 654.334 225.162 655.968 228.056C657.844 231.061 665.498 238.249 665.797 242.251C666.096 246.252 668.304 267.984 669.565 283.756C670.611 296.672 671.906 302.018 674.712 305.438C677.518 308.858 683.81 314.337 687.13 313.357Z" fill="#FFA8A7"/>
    <path d="M258.416 555.813C305.279 555.813 343.269 537.706 343.269 515.371C343.269 493.035 305.279 474.928 258.416 474.928C211.553 474.928 173.563 493.035 173.563 515.371C173.563 537.706 211.553 555.813 258.416 555.813Z" fill="#E0E0E0"/>
    <path d="M438.714 568.115C485.577 568.115 523.567 550.009 523.567 527.673C523.567 505.337 485.577 487.23 438.714 487.23C391.851 487.23 353.861 505.337 353.861 527.673C353.861 550.009 391.851 568.115 438.714 568.115Z" fill="#E0E0E0"/>
    <path d="M279.766 181.819C284.166 181.188 287.884 181.819 295.571 192.312C302.444 201.708 316.141 217.48 316.141 217.48C316.141 217.48 328.526 185.023 328.161 180.657C327.796 176.291 325.056 173.601 323.263 165.566C321.47 157.53 320.956 156.003 319.611 153.662C318.266 151.321 322.931 150.757 324.807 153.662C326.683 156.567 326.916 160.668 328.227 159.938C329.539 159.207 330.435 150.375 329.323 144.033C328.211 137.691 331.099 136.263 332.411 138.289C333.172 139.421 333.707 140.689 333.988 142.024C335.345 141.747 336.752 141.834 338.064 142.278C339.377 142.721 340.548 143.504 341.459 144.548C344.78 148.167 347.536 153.728 347.519 163.142C347.502 172.555 343.153 177.586 342.538 181.836C341.924 186.086 334.237 225.482 328.792 238.797C325.372 247.098 320.64 249.622 314.863 244.757C307.076 238.2 285.71 211.935 285.71 211.935L279.766 181.819Z" fill="#FFA8A7"/>
    <path d="M279.766 181.819C283.734 180.64 288.067 181.57 292.085 186.385C296.102 191.199 310.812 209.827 310.812 209.827C310.812 209.827 310.38 219.356 298.078 228.189L284.049 213.081L279.766 181.819Z" fill="#D10000" fill-opacity="0.75"/>
    <path d="M300.552 489.222L300.419 487.014C301.465 489.555 306.18 500.512 312.671 505.742C317.818 509.909 324.807 514.673 326.8 519.538C328.792 524.402 317.934 527.009 313.319 526.461C307.956 525.847 300.9 523.24 296.883 518.874C294.06 515.802 292.168 512.084 290.142 509.66C288.117 507.236 283.618 504.679 282.422 501.774C281.775 500.196 282.223 496.61 282.821 493.589C283.418 490.567 284.315 487.479 285.261 487.678C285.221 488.33 285.144 488.978 285.029 489.621C287.336 491.228 290.127 491.991 292.931 491.779C295.206 491.729 300.685 490.949 300.552 489.222Z" fill="#263238"/>
    <path d="M317.336 509.377C315.676 508.116 314.132 506.887 312.671 505.708C308.139 502.039 304.47 495.581 302.312 491.165V491.082C300.66 487.507 299.94 483.571 300.22 479.643L300.419 474.413L283.817 474.746L285.029 489.588V489.97H285.112C286.058 493.141 293.678 501.292 298.061 506.572C300.983 510.141 306.362 514.607 312.621 515.055C318.565 515.62 321.387 513.594 317.336 509.377Z" fill="#FFA8A7"/>
    <path d="M207.862 491.115C207.066 490.65 205.754 493.356 204.376 495.415C202.897 497.976 202.193 500.912 202.351 503.865C202.718 507.192 202.544 510.556 201.836 513.827C200.906 519.339 199.296 525.664 204.841 530.744C209.606 535.094 220.231 537.119 223.618 534.065C224.306 533.505 224.853 532.791 225.213 531.98C225.574 531.17 225.738 530.285 225.693 529.399C225.014 526.993 224.079 524.667 222.904 522.46C221.594 519.957 220.419 517.385 219.384 514.756L207.862 491.115Z" fill="#263238"/>
    <path d="M222.838 481.785C222.107 481.17 220.53 501.558 220.082 506.406C219.633 511.253 220.48 513.793 221.277 518.957C221.674 520.177 221.585 521.503 221.028 522.659C220.607 523.195 220.066 523.624 219.449 523.912C218.832 524.201 218.156 524.34 217.475 524.319C213.955 524.319 211.166 523.024 208.211 519.687C206.75 518.027 206.651 513.627 206.734 512.034C206.974 509.362 207.024 506.677 206.883 503.998C206.617 501.159 205.787 497.822 206.152 495.697C206.465 494.051 207.024 492.461 207.813 490.982C209.157 487.911 210.054 479.51 210.054 479.51L222.838 481.785Z" fill="#FFA8A7"/>
    <path d="M229.794 265.643C221.177 276.716 219.617 288.139 221.493 320.43C223.369 352.721 220.646 379.101 220.165 380.911C219.683 382.72 214.221 400.551 211.648 412.554C208.643 426.616 208.228 484.507 208.228 484.507C208.228 484.507 214.354 487.828 223.817 485.57C223.817 485.57 246.662 395.106 249.085 387.817C251.509 380.529 269.855 305.355 269.855 305.355L267.514 262.073L229.794 265.643Z" fill="#37474F"/>
    <path d="M295.687 302.865C294.376 287.923 291.172 262.04 291.172 262.04L252.987 259.799C246.794 269.445 249.484 285.482 251.177 299.976L273.026 385.51C272.577 389.61 268.809 398.293 273.026 420.374C277.724 444.978 283.485 477.501 283.485 477.501C283.485 477.501 292.45 481.154 300.685 477.684C300.685 477.684 303.839 399.787 301.83 378.52C299.622 355.427 296.584 313.091 295.687 302.865Z" fill="#37474F"/>
    <path d="M263.181 339.157L269.406 307.779C274.925 305.813 280.165 303.14 284.996 299.826C281.91 303.726 278.229 307.116 274.088 309.871L263.181 339.157Z" fill="#263238"/>
    <path d="M232.101 189.655C227.818 192.129 220.729 194.387 217.774 202.721C213.74 214.342 203.031 244.525 198.914 255.366H218.704L232.4 227.309C242.992 218.211 241.565 192.926 232.101 189.655Z" fill="#FFA8A7"/>
    <path d="M288.681 237.785C289.628 246.501 293.147 278.742 293.147 278.742C264.343 294.099 228.632 283.922 223.17 277.596C228.15 261.293 233.446 252.013 237.514 247.713L232.4 227.309C232.4 227.309 244.47 212.948 232.102 189.655L248.156 184.376L270.137 182.467L279.766 181.819C283.203 185.04 288.615 196.578 292.135 205.56C294.392 211.354 296.833 220.618 288.681 237.785Z" fill="#F5F5F5"/>
    <path d="M232.101 189.655C222.638 191.515 218.388 196.163 214.603 206.49C210.519 217.663 205.621 229.733 205.621 229.733C208.272 233.564 211.972 236.549 216.278 238.331C220.583 240.112 225.31 240.614 229.893 239.777L236.02 222.693C236.02 222.693 244.238 207.619 232.101 189.655Z" fill="#D10000" fill-opacity="0.75"/>
    <path d="M235.007 237.569C235.256 238.565 241.996 247.53 245.3 249.589C248.604 251.647 239.456 254.569 238.161 259.799C235.555 270.308 251.841 283.805 272.079 285.731C249.185 289.483 227.387 282.411 223.219 277.596C228.2 261.293 233.496 252.013 237.564 247.713L235.007 237.569Z" fill="#E6E6E6"/>
    <path d="M295.571 179.777H264.808C259.862 179.779 254.965 178.807 250.396 176.915C245.826 175.024 241.675 172.25 238.178 168.753C234.681 165.257 231.907 161.105 230.016 156.536C228.124 151.966 227.152 147.069 227.154 142.124V142.124C227.154 133.053 230.757 124.354 237.171 117.94C243.585 111.527 252.284 107.923 261.354 107.923V107.923C265.847 107.921 270.296 108.804 274.447 110.522C278.599 112.24 282.371 114.759 285.548 117.935C288.726 121.111 291.246 124.881 292.966 129.032C294.686 133.182 295.571 137.631 295.571 142.124V179.777Z" fill="#263238"/>
    <path d="M283.352 122.815C286.971 124.957 291.437 134.038 290.989 153.098C290.607 169.235 285.377 173.236 282.688 174.381C279.998 175.527 274.985 174.83 270.07 174V183.695C269.765 185.744 268.661 187.588 266.999 188.825C262.981 191.332 258.233 190.386 255.56 189.423C249.666 187.298 248.504 184.442 248.504 184.442L248.604 162.146C248.604 162.146 245.715 164.968 240.784 160.668C236.733 157.115 235.372 151.138 238.526 147.918C239.348 147.154 240.339 146.597 241.418 146.292C242.497 145.987 243.633 145.943 244.733 146.163C245.832 146.384 246.864 146.863 247.742 147.56C248.62 148.258 249.319 149.154 249.783 150.176C249.783 150.176 252.671 150.408 255.56 145.029C255.56 145.029 255.461 130.452 258.715 128.56C269.091 122.55 276.429 122.815 283.352 122.815Z" fill="#FFA8A7"/>
    <path d="M270.12 148.017C270.141 148.287 270.107 148.558 270.022 148.814C269.937 149.071 269.801 149.308 269.624 149.512C269.446 149.716 269.23 149.883 268.987 150.002C268.745 150.122 268.481 150.192 268.211 150.209C267.791 150.248 267.369 150.161 267 149.958C266.63 149.756 266.33 149.447 266.138 149.072C265.945 148.697 265.87 148.273 265.921 147.854C265.972 147.436 266.147 147.042 266.424 146.725C266.701 146.407 267.067 146.179 267.474 146.071C267.882 145.963 268.312 145.98 268.71 146.119C269.108 146.258 269.455 146.514 269.706 146.852C269.958 147.19 270.102 147.596 270.12 148.017V148.017Z" fill="#263238"/>
    <g style="mix-blend-mode:multiply" opacity="0.5">
        <g style="mix-blend-mode:multiply" opacity="0.5">
            <path d="M273.507 162.727L278.222 164.221C278.135 164.535 277.985 164.828 277.782 165.083C277.578 165.338 277.326 165.549 277.039 165.704C276.753 165.859 276.437 165.955 276.113 165.985C275.788 166.015 275.461 165.98 275.151 165.881C274.526 165.665 274.007 165.217 273.702 164.631C273.396 164.044 273.326 163.363 273.507 162.727V162.727Z" fill="#F28F8F"/>
        </g>
    </g>
    <path d="M288.482 141.692L284.381 138.853C284.551 138.575 284.776 138.335 285.043 138.147C285.31 137.96 285.612 137.829 285.931 137.764C286.251 137.699 286.58 137.7 286.899 137.767C287.218 137.834 287.519 137.967 287.785 138.156C288.334 138.542 288.713 139.125 288.843 139.784C288.973 140.443 288.844 141.126 288.482 141.692V141.692Z" fill="#263238"/>
    <path d="M267.298 140.812L262.633 142.605C262.499 142.308 262.427 141.986 262.423 141.66C262.419 141.334 262.482 141.011 262.608 140.71C262.734 140.41 262.921 140.138 263.156 139.913C263.392 139.688 263.671 139.513 263.977 139.401C264.606 139.167 265.301 139.182 265.919 139.445C266.536 139.707 267.03 140.197 267.298 140.812V140.812Z" fill="#263238"/>
    <path d="M287.37 147.569C287.376 147.97 287.264 148.364 287.047 148.701C286.831 149.039 286.52 149.305 286.154 149.468C285.787 149.63 285.38 149.68 284.985 149.613C284.59 149.546 284.223 149.363 283.931 149.089C283.638 148.815 283.433 148.461 283.341 148.07C283.248 147.68 283.273 147.272 283.411 146.895C283.55 146.519 283.796 146.192 284.119 145.954C284.442 145.717 284.828 145.58 285.228 145.56C285.777 145.547 286.31 145.75 286.711 146.126C287.111 146.502 287.348 147.02 287.37 147.569V147.569Z" fill="#263238"/>
    <g style="mix-blend-mode:multiply" opacity="0.5">
        <g style="mix-blend-mode:multiply" opacity="0.5">
            <path d="M277.624 146.407L277.94 158.626L284.381 156.634L277.624 146.407Z" fill="#F28F8F"/>
        </g>
    </g>
    <g style="mix-blend-mode:multiply" opacity="0.5">
        <g style="mix-blend-mode:multiply" opacity="0.5">
            <path d="M270.137 174.016C264.94 173.335 254.249 170.281 252.588 166.047C253.253 168.19 254.563 170.074 256.34 171.443C259.528 174.182 270.137 177.253 270.137 177.253V174.016Z" fill="#F28F8F"/>
        </g>
    </g>
    <path d="M256.407 109.75L255.627 100.785C256.214 100.696 256.813 100.729 257.386 100.881C257.96 101.032 258.497 101.3 258.964 101.667C259.43 102.034 259.817 102.493 260.099 103.015C260.382 103.537 260.555 104.111 260.607 104.703C260.696 105.924 260.308 107.132 259.525 108.073C258.742 109.015 257.624 109.615 256.407 109.75V109.75Z" fill="#263238"/>
    <path d="M255.925 110.646L248.67 105.333C248.995 104.839 249.417 104.415 249.911 104.089C250.404 103.762 250.959 103.539 251.541 103.434C252.123 103.328 252.721 103.342 253.298 103.475C253.875 103.607 254.418 103.855 254.896 104.205C255.861 104.941 256.507 106.021 256.698 107.22C256.89 108.419 256.613 109.645 255.925 110.646V110.646Z" fill="#263238"/>
    <path d="M249.849 150.142V158.626C251.381 158.626 252.851 158.017 253.934 156.934C255.018 155.85 255.627 154.381 255.627 152.848V144.996L249.849 150.142Z" fill="#263238"/>
    <path d="M272.959 109.932C280.577 109.932 287.882 112.958 293.268 118.345C298.655 123.731 301.681 131.036 301.681 138.654V142.373H287.635C284.473 142.374 281.416 141.229 279.033 139.151C276.649 137.072 275.099 134.2 274.669 131.067L274.154 142.373C271.555 142.374 269.049 141.402 267.131 139.647C265.214 137.892 264.023 135.482 263.795 132.893L263.629 131.033C263.383 134.119 261.984 136.999 259.71 139.101C257.437 141.202 254.456 142.37 251.36 142.373H250.098L248.67 122.085L272.959 109.932Z" fill="#263238"/>
    <path d="M468.182 511.569V509.377C467.303 511.984 463.202 523.207 457.076 528.818C452.178 533.284 445.454 538.448 443.794 543.428C442.134 548.409 453.091 550.351 457.673 549.538C462.986 548.608 469.876 545.586 473.611 540.988C476.251 537.75 477.928 533.915 479.804 531.375C481.68 528.835 486.013 525.979 487.026 523.074C487.59 521.414 486.926 517.911 486.146 514.922C485.366 511.934 484.652 509.161 483.705 509.411V511.071C481.495 512.814 478.75 513.741 475.936 513.694C473.678 513.76 468.166 513.312 468.182 511.569Z" fill="#263238"/>
    <path d="M452.643 532.72C454.17 531.358 455.698 530.047 457.076 528.768C461.392 524.85 464.663 518.193 466.556 513.644C467.634 511.055 468.198 508.281 468.216 505.476V496.627H483.739V511.038V511.419H483.656C482.909 514.64 475.786 523.24 471.735 528.835C469.029 532.587 463.866 537.352 457.707 538.182C451.83 538.995 448.858 537.153 452.643 532.72Z" fill="#B16668"/>
    <path d="M407.602 496.262V494.037C406.738 496.644 402.621 507.867 396.512 513.478C391.614 517.944 384.89 523.107 383.23 528.088C381.57 533.068 392.527 535.011 397.109 534.197C402.422 533.251 409.295 530.246 413.047 525.647C415.67 522.41 417.347 518.575 419.24 516.035C421.132 513.495 425.449 510.639 426.462 507.734C427.026 506.074 426.362 502.571 425.582 499.582C424.851 496.843 424.071 493.821 423.141 494.07V495.73C420.931 497.474 418.186 498.4 415.371 498.354C413.097 498.453 407.585 498.005 407.602 496.262Z" fill="#263238"/>
    <path d="M392.079 517.413C393.59 516.051 395.117 514.74 396.512 513.461C400.811 509.543 404.099 502.886 405.975 498.337C407.063 495.751 407.627 492.974 407.635 490.169V481.32H423.158V495.714V496.096H423.075C422.328 499.316 415.205 507.9 411.154 513.511C408.432 517.263 403.285 522.028 397.126 522.858C391.265 523.688 388.293 521.845 392.079 517.413Z" fill="#B16668"/>
    <path d="M480.617 270.308C492.654 296.606 480.186 389.228 480.186 389.228C480.551 393.495 485.415 401.896 487.242 420.673C489.383 442.853 483.921 498.569 483.921 498.569C481.555 499.943 478.889 500.718 476.155 500.828C473.421 500.938 470.701 500.379 468.232 499.2C468.232 499.2 453.374 415.211 450.601 393.163C448.16 373.921 443.512 331.586 443.512 331.586L430.23 393.014C432.158 399.221 433.558 405.58 434.414 412.023C435.676 425.006 423.108 485.421 423.108 485.421C423.108 485.421 417.746 487.38 407.568 485.885C407.568 485.885 403.136 405.698 401.957 390.075C399.981 363.811 406.938 281.896 411.769 266.357L480.617 270.308Z" fill="#37474F"/>
    <path d="M443.512 331.569L439.594 307.148C439.594 307.148 422.992 303.711 415.571 296.672C415.571 296.672 423.423 306.451 435.111 309.655L439.511 328.415L431.841 385.344L443.512 331.569Z" fill="#263238"/>
    <path d="M435.41 178.183C431.667 177.566 427.827 178.007 424.321 179.456C420.816 180.905 417.785 183.305 415.571 186.385C410.341 193.341 390.219 251.863 390.219 251.863H408.332L433.119 202.821L435.41 178.183Z" fill="#B16668"/>
    <path d="M459.383 178.897C474.823 179.96 475.902 187.414 479.754 195.499C482.605 201.786 482.867 208.943 480.485 215.422L469.743 246.534C469.743 246.534 474.724 258.703 480.617 270.208C453.622 285.266 419.92 277.347 411.802 266.357C411.47 264.032 413.462 245.803 414.84 233.9C410.075 221.963 408.83 214.409 410.839 206.523C414.558 191.896 429.002 177.635 435.41 178.15L459.383 178.897Z" fill="#F5F5F5"/>
    <path d="M452.477 273.163C454.597 272.677 456.597 271.772 458.362 270.501C460.126 269.23 461.619 267.619 462.751 265.763C463.883 263.906 464.633 261.842 464.956 259.692C465.278 257.541 465.167 255.348 464.63 253.241C464.561 252.951 464.467 252.668 464.347 252.394C463.978 251.263 463.238 250.288 462.247 249.629C461.256 248.969 460.072 248.662 458.885 248.758C460.619 247.615 462.108 246.138 463.265 244.414C464.422 242.689 465.225 240.752 465.626 238.714L468.946 222.262C468.946 222.262 462.853 202.937 463.468 196.313L478.957 197.209L480.966 198.604C482.612 204.109 482.455 209.996 480.518 215.405L469.776 246.517C469.776 246.517 474.757 258.686 480.651 270.192C471.869 274.915 462.177 277.7 452.227 278.359C442.278 279.017 432.303 277.535 422.975 274.01C432.775 275.591 442.784 275.303 452.477 273.163V273.163Z" fill="#E6E6E6"/>
    <path d="M516.212 256.047C516.212 256.047 500.889 225.898 490.761 202.821C483.456 186.219 481.813 182.4 470.175 180.591L466.074 179.96C460.562 198.072 464.414 206.29 471.619 218.692L496.838 266.506C502.549 265.327 516.328 257.773 516.212 256.047Z" fill="#B16668"/>
    <path d="M452.975 166.097H442.034C434.316 166.097 426.913 163.031 421.455 157.573C415.997 152.115 412.931 144.712 412.931 136.994V132.113C412.931 124.35 416.015 116.905 421.504 111.416C426.993 105.927 434.438 102.843 442.2 102.843H452.726C460.489 102.843 467.934 105.927 473.423 111.416C478.912 116.905 481.995 124.35 481.995 132.113V136.994C481.995 144.712 478.929 152.115 473.471 157.573C468.013 163.031 460.611 166.097 452.892 166.097H452.975Z" fill="#263238"/>
    <path d="M424.353 116.805C420.701 118.964 416.185 128.145 416.633 147.386C417.015 163.69 422.295 167.707 424.934 168.869C427.574 170.032 432.704 169.318 437.685 168.504V178.283C437.685 178.283 430.795 186.268 431.243 190.751C431.691 195.234 441.204 196.296 447.596 191.913C451.77 188.913 455.35 185.164 458.155 180.856V157.215C458.155 157.215 461.475 161.697 467.004 158.045C472.532 154.392 472.715 145.378 469.527 142.124C466.34 138.87 459.433 139.916 458.155 144.398C458.155 144.398 450.219 144.68 439.66 138.87C435.551 136.658 432.022 133.506 429.362 129.672C426.702 125.838 424.986 121.429 424.353 116.805Z" fill="#B16668"/>
    <path d="M436.655 143.286C436.649 143.69 436.762 144.087 436.98 144.427C437.198 144.768 437.512 145.036 437.882 145.2C438.251 145.363 438.661 145.414 439.06 145.346C439.458 145.278 439.828 145.094 440.122 144.818C440.417 144.541 440.624 144.184 440.717 143.79C440.81 143.397 440.785 142.985 440.646 142.606C440.506 142.226 440.258 141.896 439.932 141.657C439.606 141.418 439.217 141.28 438.814 141.26C438.539 141.251 438.265 141.297 438.008 141.394C437.751 141.491 437.515 141.638 437.315 141.826C437.114 142.014 436.953 142.24 436.84 142.49C436.726 142.741 436.664 143.011 436.655 143.286V143.286Z" fill="#263238"/>
    <path d="M434.281 157.099L429.533 158.626C429.622 158.941 429.774 159.234 429.978 159.489C430.183 159.744 430.437 159.955 430.725 160.11C431.013 160.265 431.33 160.36 431.655 160.391C431.981 160.421 432.309 160.385 432.621 160.286C433.249 160.063 433.769 159.61 434.077 159.019C434.385 158.427 434.458 157.741 434.281 157.099V157.099Z" fill="#9A4A4D"/>
    <path d="M419.837 136.994L423.988 134.105C423.812 133.827 423.581 133.588 423.31 133.401C423.039 133.215 422.733 133.085 422.41 133.02C422.087 132.955 421.755 132.955 421.433 133.022C421.11 133.089 420.805 133.22 420.535 133.408C419.979 133.8 419.595 134.392 419.466 135.06C419.336 135.729 419.469 136.421 419.837 136.994V136.994Z" fill="#263238"/>
    <path d="M420.8 141.808C420.797 142.212 420.913 142.607 421.134 142.945C421.354 143.283 421.668 143.55 422.038 143.71C422.408 143.871 422.818 143.92 423.215 143.85C423.612 143.78 423.981 143.595 424.274 143.318C424.567 143.04 424.772 142.683 424.864 142.29C424.955 141.897 424.93 141.486 424.789 141.107C424.649 140.729 424.401 140.4 424.076 140.162C423.75 139.923 423.362 139.786 422.959 139.766C422.403 139.757 421.867 139.966 421.463 140.347C421.06 140.729 420.822 141.253 420.8 141.808V141.808Z" fill="#263238"/>
    <path d="M430.828 140.629L430.496 152.965L424.005 150.956L430.828 140.629Z" fill="#9A4A4D"/>
    <path d="M437.701 168.504C442.931 167.807 453.722 164.702 455.399 160.452C454.733 162.608 453.417 164.504 451.63 165.881C448.409 168.654 437.701 171.758 437.701 171.758V168.504Z" fill="#9A4A4D"/>
    <path d="M477.778 106.545C471.038 109.351 472.549 115.129 475.371 121.869C478.194 128.61 481.265 133.74 487.906 130.851C489.689 130.316 491.339 129.413 492.75 128.199C494.161 126.985 495.302 125.488 496.097 123.806C496.893 122.123 497.326 120.292 497.368 118.431C497.41 116.57 497.061 114.721 496.343 113.004C495.625 111.287 494.554 109.74 493.199 108.463C491.845 107.187 490.237 106.209 488.48 105.594C486.723 104.979 484.857 104.74 483.002 104.892C481.147 105.045 479.345 105.585 477.712 106.479L477.778 106.545Z" fill="#263238"/>
    <path d="M471.852 112.589L469.494 101.349C470.216 101.167 470.967 101.132 471.703 101.246C472.439 101.36 473.145 101.621 473.778 102.012C474.411 102.404 474.959 102.919 475.39 103.527C475.82 104.134 476.125 104.822 476.284 105.549C476.596 107.068 476.309 108.648 475.483 109.96C474.657 111.272 473.356 112.213 471.852 112.589Z" fill="#263238"/>
    <path d="M527.17 251.863H175.289V332.433H527.17V251.863Z" fill="white"/>
    <path d="M223.153 310.734C222.849 310.452 222.63 310.089 222.522 309.688L213.972 281.929C213.942 281.759 213.942 281.585 213.972 281.415C213.972 280.867 214.304 280.601 214.985 280.601H219.866C220.238 280.562 220.612 280.65 220.928 280.85C221.178 281.081 221.337 281.393 221.377 281.73L226.888 301.105L233.147 284.503C233.267 284.157 233.466 283.844 233.729 283.59C234.018 283.37 234.38 283.269 234.741 283.307H237.464C237.809 283.278 238.154 283.366 238.444 283.556C238.69 283.827 238.872 284.151 238.975 284.503L245.184 301.105L250.746 281.73C250.828 281.407 250.981 281.107 251.194 280.85C251.514 280.646 251.895 280.558 252.273 280.601H257.137C257.818 280.601 258.15 280.867 258.15 281.415C258.171 281.586 258.171 281.758 258.15 281.929L249.467 309.655C249.378 310.065 249.17 310.441 248.87 310.734C248.532 310.927 248.145 311.014 247.757 310.983H243.856C243.496 311.01 243.137 310.91 242.843 310.701C242.567 310.396 242.353 310.041 242.212 309.655L235.887 292.621L229.545 309.655C229.407 310.05 229.18 310.408 228.881 310.701C228.573 310.909 228.205 311.008 227.835 310.983H224.232C223.856 311.003 223.482 310.916 223.153 310.734V310.734Z" fill="#D10000"/>
    <path d="M267.663 310.286C265.074 309.225 262.86 307.415 261.304 305.089C259.64 302.477 258.812 299.419 258.93 296.323C258.93 290.878 260.386 286.744 263.297 283.922C266.202 281.099 270.336 279.672 275.698 279.672C281.061 279.672 285.045 281.049 287.768 283.789C290.491 286.528 291.852 290.43 291.852 295.692C291.852 297.17 291.172 297.917 289.827 297.917H266.584C266.521 299.144 266.754 300.368 267.262 301.486C267.77 302.604 268.54 303.583 269.506 304.342C271.883 305.967 274.733 306.755 277.608 306.583C280.75 306.63 283.848 305.845 286.589 304.309C286.799 304.169 287.037 304.078 287.287 304.043C287.586 304.043 287.818 304.243 287.984 304.624L289.511 307.347C289.623 307.563 289.685 307.801 289.694 308.044C289.676 308.217 289.615 308.381 289.516 308.523C289.417 308.666 289.284 308.781 289.13 308.858C287.39 309.921 285.497 310.71 283.518 311.199C281.251 311.74 278.925 311.997 276.595 311.962C273.536 312.006 270.498 311.436 267.663 310.286V310.286ZM284.498 293.219C284.56 292.104 284.4 290.989 284.027 289.937C283.653 288.885 283.074 287.918 282.323 287.093C281.436 286.299 280.398 285.693 279.271 285.311C278.144 284.929 276.951 284.778 275.765 284.868C273.286 284.707 270.842 285.523 268.958 287.142C268.162 287.935 267.54 288.884 267.131 289.931C266.722 290.977 266.536 292.097 266.584 293.219H284.498Z" fill="#D10000"/>
    <path d="M298.642 310.452C298.258 309.986 298.063 309.394 298.095 308.791V270.308C298.043 269.667 298.239 269.032 298.642 268.532C298.886 268.319 299.171 268.159 299.48 268.061C299.788 267.964 300.114 267.932 300.435 267.967H303.756C304.421 267.904 305.083 268.107 305.599 268.532C305.805 268.776 305.962 269.058 306.059 269.363C306.155 269.668 306.191 269.989 306.163 270.308V308.742C306.2 309.342 306.01 309.934 305.632 310.402C305.105 310.828 304.431 311.031 303.756 310.966H300.435C300.117 311.004 299.795 310.978 299.487 310.89C299.179 310.801 298.892 310.652 298.642 310.452V310.452Z" fill="#D10000"/>
    <path d="M317.071 307.812C315.456 306.305 314.196 304.458 313.381 302.406C312.566 300.353 312.216 298.146 312.356 295.942C312.293 292.97 313.039 290.038 314.514 287.458C315.97 284.993 318.11 283.004 320.673 281.73C323.604 280.309 326.83 279.603 330.087 279.671C332.368 279.633 334.645 279.89 336.86 280.435C338.721 280.945 340.475 281.782 342.04 282.909C342.197 282.985 342.333 283.1 342.434 283.242C342.536 283.384 342.6 283.549 342.621 283.722C342.595 284.043 342.486 284.352 342.306 284.619L340.646 287.591C340.38 288.006 340.148 288.222 339.948 288.222C339.618 288.187 339.306 288.054 339.052 287.84C337.835 287.086 336.53 286.484 335.167 286.047C333.675 285.607 332.124 285.399 330.568 285.432C329.196 285.362 327.823 285.576 326.538 286.062C325.252 286.548 324.08 287.294 323.097 288.255C322.16 289.294 321.436 290.507 320.969 291.827C320.502 293.146 320.3 294.544 320.375 295.942C320.268 297.344 320.456 298.754 320.925 300.08C321.393 301.406 322.133 302.62 323.097 303.645C325.331 305.494 328.191 306.41 331.083 306.202C334.08 306.29 337.027 305.424 339.5 303.728C339.746 303.555 340.031 303.446 340.33 303.412C340.579 303.412 340.828 303.628 341.077 304.043L342.92 307.148C343.079 307.346 343.167 307.591 343.169 307.845C343.169 308.144 342.953 308.443 342.538 308.742C340.863 309.833 339.025 310.651 337.093 311.166C334.858 311.733 332.558 312.001 330.253 311.962C324.608 311.962 320.214 310.579 317.071 307.812Z" fill="#D10000"/>
    <path d="M352.583 307.629C349.704 304.371 348.116 300.173 348.116 295.825C348.116 291.478 349.704 287.28 352.583 284.021C355.554 281.132 359.788 279.672 365.283 279.672C370.778 279.672 375.012 281.132 378 284.021C380.899 287.27 382.5 291.472 382.5 295.825C382.5 300.179 380.899 304.381 378 307.629C375.012 310.518 370.762 311.962 365.283 311.962C359.804 311.962 355.554 310.518 352.583 307.629ZM372.107 303.412C373.821 301.271 374.663 298.561 374.464 295.825C374.662 293.115 373.819 290.431 372.107 288.321C370.224 286.663 367.801 285.747 365.291 285.747C362.782 285.747 360.359 286.663 358.476 288.321C356.752 290.426 355.902 293.112 356.102 295.825C355.911 298.553 356.759 301.251 358.476 303.379C360.344 305.068 362.773 306.004 365.291 306.004C367.81 306.004 370.239 305.068 372.107 303.379V303.412Z" fill="#D10000"/>
    <path d="M389.273 310.452C388.871 309.995 388.662 309.399 388.692 308.791V282.394C388.649 281.921 388.766 281.448 389.024 281.049C389.223 280.8 389.671 280.684 390.352 280.684H393.673C394.034 280.648 394.395 280.749 394.685 280.966C394.923 281.238 395.058 281.585 395.067 281.946L395.25 284.602C396.386 283.118 397.823 281.89 399.467 281C401.218 280.11 403.164 279.671 405.128 279.721C406.828 279.68 408.506 280.111 409.976 280.966C411.361 281.802 412.421 283.084 412.981 284.602C414.112 283.008 415.627 281.725 417.385 280.872C419.144 280.019 421.089 279.623 423.042 279.721C424.353 279.657 425.663 279.866 426.889 280.335C428.115 280.804 429.23 281.522 430.164 282.444C432.062 284.699 433.004 287.606 432.787 290.546V308.808C432.817 309.408 432.628 309.998 432.256 310.468C431.728 310.895 431.055 311.098 430.38 311.033H427.591C426.932 311.084 426.279 310.882 425.764 310.468C425.368 310.009 425.166 309.414 425.2 308.808V290.944C425.343 289.441 424.896 287.941 423.955 286.761C423.455 286.311 422.869 285.968 422.233 285.751C421.596 285.534 420.923 285.448 420.252 285.499C419.475 285.464 418.699 285.594 417.975 285.88C417.251 286.167 416.596 286.602 416.052 287.159C414.915 288.42 414.319 290.078 414.392 291.774V308.692C414.426 309.298 414.224 309.893 413.827 310.352C413.308 310.769 412.648 310.971 411.985 310.917H409.395C408.735 310.975 408.08 310.772 407.568 310.352C407.166 309.895 406.958 309.3 406.987 308.692V290.629C407.107 289.244 406.718 287.862 405.892 286.744C405.428 286.297 404.874 285.955 404.267 285.741C403.659 285.526 403.014 285.443 402.372 285.499C401.547 285.469 400.725 285.615 399.961 285.927C399.197 286.239 398.508 286.71 397.939 287.308C396.783 288.598 396.186 290.294 396.279 292.023V308.742C396.309 309.341 396.12 309.931 395.748 310.402C395.22 310.828 394.547 311.031 393.872 310.966H391.083C390.436 311.031 389.789 310.847 389.273 310.452V310.452Z" fill="#D10000"/>
    <path d="M447.447 310.286C444.868 309.247 442.656 307.468 441.088 305.172C439.423 302.56 438.595 299.502 438.714 296.406C438.714 290.961 440.169 286.827 443.08 284.005C445.986 281.182 450.12 279.755 455.482 279.755C460.844 279.755 464.829 281.132 467.552 283.872C470.274 286.611 471.636 290.513 471.636 295.775C471.636 297.253 470.955 298 469.61 298H446.401C446.338 299.227 446.57 300.451 447.079 301.569C447.587 302.687 448.357 303.666 449.323 304.425C451.699 306.052 454.55 306.841 457.424 306.666C460.566 306.711 463.664 305.926 466.406 304.392C466.615 304.252 466.854 304.161 467.103 304.126C467.402 304.126 467.635 304.326 467.801 304.707L469.328 307.43C469.439 307.646 469.502 307.884 469.511 308.127C469.493 308.3 469.431 308.464 469.333 308.606C469.234 308.749 469.101 308.864 468.946 308.941C467.207 310.004 465.314 310.793 463.335 311.282C461.068 311.823 458.742 312.08 456.412 312.045C453.335 312.067 450.286 311.469 447.447 310.286V310.286ZM464.281 293.219C464.344 292.104 464.184 290.989 463.81 289.937C463.437 288.885 462.858 287.918 462.106 287.093C461.219 286.3 460.181 285.694 459.054 285.312C457.927 284.93 456.735 284.779 455.548 284.868C453.069 284.703 450.624 285.52 448.742 287.142C447.951 287.938 447.335 288.888 446.932 289.935C446.529 290.981 446.348 292.099 446.401 293.219H464.281Z" fill="#D10000"/>
    <path d="M476.567 308.493V307.148C476.567 305.388 477.812 304.492 480.302 304.492H481.962C484.453 304.492 485.698 305.388 485.698 307.148V308.493C485.698 310.219 484.453 311.083 481.962 311.083H480.302C477.812 311.038 476.567 310.175 476.567 308.493ZM477.928 298.531C477.567 298.025 477.397 297.408 477.446 296.788L477.081 270.308C477.025 269.67 477.215 269.034 477.612 268.532C477.86 268.32 478.148 268.161 478.459 268.064C478.77 267.967 479.098 267.934 479.422 267.967H482.925C483.249 267.934 483.577 267.967 483.888 268.064C484.199 268.161 484.487 268.32 484.735 268.532C485.132 269.034 485.322 269.67 485.266 270.308L484.834 296.772C484.884 297.391 484.714 298.009 484.353 298.515C483.89 298.902 483.294 299.093 482.693 299.046H479.588C479.293 299.089 478.992 299.065 478.708 298.976C478.423 298.886 478.163 298.735 477.945 298.531H477.928Z" fill="#D10000"/>
    <path d="M175.289 266.406C174.26 269.279 171.969 270.64 170.309 273.496C168.648 276.351 167.951 284.885 169.827 288.437C171.258 290.93 173.267 293.041 175.686 294.593C178.104 296.145 180.861 297.091 183.723 297.353C186.124 297.451 188.495 296.789 190.497 295.46C191.429 294.834 192.254 294.06 192.937 293.169C193.561 292.213 194.032 291.166 194.332 290.064C194.356 289.977 194.401 289.897 194.465 289.832C194.555 289.775 194.657 289.74 194.763 289.732C195.491 289.628 196.175 289.323 196.739 288.852C197.02 288.617 197.247 288.322 197.401 287.989C197.556 287.656 197.636 287.294 197.636 286.927C197.58 286.46 197.414 286.013 197.152 285.623C196.889 285.233 196.537 284.912 196.125 284.685C195.286 284.253 194.4 283.919 193.485 283.689C191.277 282.975 189.235 281.863 187.077 281.05C182.703 279.494 178.688 277.071 175.273 273.927L175.289 266.406Z" fill="#FFA8A7"/>
    <path d="M527.186 268.996C528.215 271.902 530.507 273.28 532.167 276.185C533.827 279.09 534.557 287.806 532.665 291.343C531.214 293.874 529.173 296.019 526.716 297.594C524.26 299.169 521.46 300.129 518.553 300.391C516.244 300.551 513.946 299.958 512.003 298.701C510.06 297.444 508.578 295.59 507.778 293.418C506.268 288.188 508.874 286.213 515.15 283.839C519.592 282.266 523.67 279.809 527.136 276.617L527.186 268.996Z" fill="#B16668"/>
    <path d="M373.352 244.857C382.649 246.368 385.322 251.863 385.322 251.863H377.718C377.718 251.863 376.755 254.42 379.378 263.999C380.275 267.32 375.311 267.452 375.161 266.191C374.265 268.249 367.724 271.171 362.843 267.851C358.36 264.879 356.368 260.33 357.364 251.813C359.008 242.334 371.692 244.591 373.352 244.857Z" fill="#B16668"/>
</svg>
