<svg width="1440" height="820" viewBox="0 0 1440 820" fill="none" xmlns="http://www.w3.org/2000/svg">
<g clip-path="url(#clip0)">
<path fill-rule="evenodd" clip-rule="evenodd" d="M0 474L473 0H0V474Z" fill="url(#paint0_linear)"/>
<path fill-rule="evenodd" clip-rule="evenodd" d="M1385 820L1347 515H1440V820H1385Z" fill="url(#paint1_linear)"/>
<path fill-rule="evenodd" clip-rule="evenodd" d="M1440 25L0 635V647L429 820H1440V25Z" fill="url(#paint2_linear)"/>
<path fill-rule="evenodd" clip-rule="evenodd" d="M1440 696L0 310V141L185 0H1440V696Z" fill="url(#paint3_linear)"/>
<path fill-rule="evenodd" clip-rule="evenodd" d="M827.281 814.838L31.2978 819.983L25.998 0L202.994 -1.14396L827.281 814.838Z" fill="url(#paint4_linear)"/>
</g>
<defs>
<linearGradient id="paint0_linear" x1="-39.8745" y1="-83.5392" x2="237.169" y2="236.421" gradientUnits="userSpaceOnUse">
<stop stop-opacity="0.01"/>
<stop offset="1" stop-opacity="0.02"/>
</linearGradient>
<linearGradient id="paint1_linear" x1="1393.5" y1="515" x2="1518.88" y2="714.367" gradientUnits="userSpaceOnUse">
<stop stop-color="#D10000" stop-opacity="0.01"/>
<stop offset="1" stop-color="#D10000" stop-opacity="0.04"/>
</linearGradient>
<linearGradient id="paint2_linear" x1="855.736" y1="377.283" x2="946.993" y2="598.741" gradientUnits="userSpaceOnUse">
<stop stop-color="#D10000" stop-opacity="0.02"/>
<stop offset="1" stop-color="#D10000" stop-opacity="0"/>
</linearGradient>
<linearGradient id="paint3_linear" x1="1117.76" y1="239.556" x2="1041.71" y2="450.356" gradientUnits="userSpaceOnUse">
<stop stop-color="#D10000" stop-opacity="0.05"/>
<stop offset="1" stop-color="#D10000" stop-opacity="0.01"/>
</linearGradient>
<linearGradient id="paint4_linear" x1="17.5481" y1="351.689" x2="737.284" y2="796.015" gradientUnits="userSpaceOnUse">
<stop stop-color="#D10000" stop-opacity="0.02"/>
<stop offset="1" stop-color="#D10000" stop-opacity="0.03"/>
</linearGradient>
<clipPath id="clip0">
<rect width="1440" height="820" fill="white"/>
</clipPath>
</defs>
</svg>
